<svg width="363" height="371" viewBox="0 0 363 371" fill="none" xmlns="http://www.w3.org/2000/svg">
<path d="M257.927 243.704L241.519 226.873L224.327 243.498L241.465 262.538C243.831 265.167 244 269.105 241.868 271.927L239.653 274.859C237.473 277.744 237.704 281.783 240.198 284.402L316.53 364.536C319.465 367.618 324.392 367.586 327.287 364.467L357.081 332.365C359.747 329.493 359.704 325.039 356.984 322.218L280.425 242.825C277.781 240.083 273.485 239.802 270.507 242.177L267.817 244.323C264.851 246.688 260.575 246.421 257.927 243.704Z" fill="#0D47A1" stroke="#0D47A1" stroke-width="7.38268"/>
<ellipse cx="141.296" cy="141.188" rx="129.271" ry="129.271" fill="#F5F5F5" stroke="#0D47A1" stroke-width="23.5355"/>
<path d="M242.152 144.886C240.208 198.905 195.804 242.101 141.311 242.101C86.8168 242.101 42.4123 198.905 40.4678 144.886L141.311 144.887L242.152 144.886Z" fill="#F5F5F5" stroke="#0D47A1" stroke-width="7.38999"/>
<path d="M173.564 185.426C173.264 185.086 170.191 185.086 170.191 185.086C170.191 185.086 167.546 185.06 166.987 185.026C166.428 184.991 165.829 185.721 166.466 185.785C167.103 185.849 173.025 186.846 173.466 186.398C173.907 185.951 173.863 185.765 173.564 185.426Z" fill="#333333"/>
<path d="M170.391 185.718C170.119 185.835 165.514 185.802 165.805 185.718C166.096 185.634 166.766 184.874 166.766 184.147C166.766 183.419 166.564 180.09 166.766 180.09H168.828C169.046 180.09 168.828 182.676 168.828 183.53C168.828 184.383 170.663 185.601 170.391 185.718Z" fill="#333333"/>
<path d="M168.912 180.094C168.912 179.861 168.15 180.094 168.15 180.094V185.761H170.294C170.801 185.761 168.912 184.424 168.912 183.494V180.094Z" fill="#333333"/>
<path d="M168.912 180.094C168.912 179.861 168.15 180.094 168.15 180.094V185.761H170.294C170.801 185.761 168.912 184.424 168.912 183.494V180.094Z" fill="#F5F5F5" fill-opacity="0.05"/>
<path d="M161.532 176.964C161.455 175.092 166.733 160.523 167.577 160.809C168.421 161.096 174.275 174.986 173.935 176.964C173.595 178.941 169.529 180.09 169.036 180.09H166.431C165.866 180.09 161.61 178.836 161.532 176.964Z" fill="#009688"/>
<path d="M165.952 163.652C166.648 162.144 167.256 160.816 167.589 160.816C168.718 162.319 174.598 173.972 173.837 177.345C173.524 178.997 169.036 180.118 169.036 180.118C168.389 180.303 167.866 180.244 166.326 180.118C164.786 179.992 163.427 179.259 164.45 178.867C165.785 178.132 166.326 177.173 166.326 177.173C168.338 174.657 166.51 166.1 165.952 163.652Z" fill="#009688"/>
<path d="M165.952 163.652C166.648 162.144 167.256 160.816 167.589 160.816C168.718 162.319 174.598 173.972 173.837 177.345C173.524 178.997 169.036 180.118 169.036 180.118C168.389 180.303 167.866 180.244 166.326 180.118C164.786 179.992 163.427 179.259 164.45 178.867C165.785 178.132 166.326 177.173 166.326 177.173C168.338 174.657 166.51 166.1 165.952 163.652Z" fill="#333333" fill-opacity="0.15"/>
<path d="M167.163 162.893C166.533 162.054 167.29 160.706 167.594 160.83C168.154 161.058 174.742 174.196 173.914 177.248C173.75 178.75 168.102 181.045 168.737 179.88C169.372 178.714 171.68 176.407 170.915 172.378C170.151 168.349 167.764 163.693 167.163 162.893Z" fill="#009688"/>
<path d="M167.163 162.893C166.533 162.054 167.29 160.706 167.594 160.83C168.154 161.058 174.742 174.196 173.914 177.248C173.75 178.75 168.102 181.045 168.737 179.88C169.372 178.714 171.68 176.407 170.915 172.378C170.151 168.349 167.764 163.693 167.163 162.893Z" fill="#333333" fill-opacity="0.35"/>
<path d="M161.724 212.672C161.424 212.333 158.351 212.333 158.351 212.333C158.351 212.333 155.706 212.307 155.147 212.273C154.588 212.238 153.989 212.968 154.626 213.032C155.263 213.096 161.185 214.093 161.626 213.645C162.067 213.198 162.023 213.012 161.724 212.672Z" fill="#333333"/>
<path d="M158.551 212.964C158.279 213.082 153.675 213.048 153.965 212.964C154.256 212.881 154.926 212.121 154.926 211.393C154.926 210.666 154.724 207.336 154.926 207.336H156.988C157.206 207.336 156.988 209.923 156.988 210.776C156.988 211.629 158.823 212.847 158.551 212.964Z" fill="#333333"/>
<path d="M157.072 207.341C157.072 207.108 156.311 207.341 156.311 207.341V213.008H158.454C158.962 213.008 157.072 211.671 157.072 210.741V207.341Z" fill="#333333"/>
<path d="M157.072 207.341C157.072 207.108 156.311 207.341 156.311 207.341V213.008H158.454C158.962 213.008 157.072 211.671 157.072 210.741V207.341Z" fill="#F5F5F5" fill-opacity="0.05"/>
<path d="M149.692 204.211C149.615 202.338 154.894 187.769 155.737 188.056C156.581 188.343 162.435 202.233 162.095 204.211C161.755 206.188 157.69 207.337 157.196 207.337H154.591C154.026 207.337 149.77 206.083 149.692 204.211Z" fill="#009688"/>
<path d="M154.112 190.897C154.808 189.389 155.416 188.061 155.75 188.061C156.878 189.564 162.758 201.217 161.998 204.59C161.684 206.242 157.196 207.363 157.196 207.363C156.549 207.548 156.027 207.489 154.486 207.363C152.946 207.237 151.587 206.504 152.611 206.112C153.946 205.376 154.486 204.418 154.486 204.418C156.498 201.902 154.67 193.345 154.112 190.897Z" fill="#009688"/>
<path d="M154.112 190.897C154.808 189.389 155.416 188.061 155.75 188.061C156.878 189.564 162.758 201.217 161.998 204.59C161.684 206.242 157.196 207.363 157.196 207.363C156.549 207.548 156.027 207.489 154.486 207.363C152.946 207.237 151.587 206.504 152.611 206.112C153.946 205.376 154.486 204.418 154.486 204.418C156.498 201.902 154.67 193.345 154.112 190.897Z" fill="#333333" fill-opacity="0.15"/>
<path d="M155.325 190.14C154.695 189.301 155.451 187.953 155.755 188.077C156.315 188.305 162.904 201.442 162.075 204.494C161.911 205.996 156.263 208.292 156.898 207.126C157.533 205.961 159.841 203.653 159.076 199.624C158.312 195.595 155.925 190.94 155.325 190.14Z" fill="#009688"/>
<path d="M155.325 190.14C154.695 189.301 155.451 187.953 155.755 188.077C156.315 188.305 162.904 201.442 162.075 204.494C161.911 205.996 156.263 208.292 156.898 207.126C157.533 205.961 159.841 203.653 159.076 199.624C158.312 195.595 155.925 190.94 155.325 190.14Z" fill="#333333" fill-opacity="0.35"/>
<path d="M145.324 226.699C145.025 226.361 141.959 226.361 141.959 226.361C141.959 226.361 139.32 226.335 138.762 226.3C138.204 226.266 137.606 226.994 138.242 227.058C138.878 227.122 144.787 228.116 145.226 227.67C145.666 227.224 145.623 227.038 145.324 226.699Z" fill="#333333"/>
<path d="M142.158 226.99C141.887 227.107 137.292 227.073 137.583 226.99C137.873 226.906 138.541 226.148 138.541 225.422C138.541 224.696 138.34 221.374 138.541 221.374H140.598C140.816 221.374 140.598 223.955 140.598 224.806C140.598 225.657 142.429 226.873 142.158 226.99Z" fill="#333333"/>
<path d="M140.676 221.378C140.676 221.146 139.916 221.378 139.916 221.378V227.032H142.055C142.561 227.032 140.676 225.698 140.676 224.77V221.378Z" fill="#333333"/>
<path d="M140.676 221.378C140.676 221.146 139.916 221.378 139.916 221.378V227.032H142.055C142.561 227.032 140.676 225.698 140.676 224.77V221.378Z" fill="#F5F5F5" fill-opacity="0.05"/>
<path d="M135.485 219.419C135.431 218.219 139.113 208.874 139.702 209.057C140.29 209.241 144.374 218.151 144.136 219.419C143.899 220.688 141.064 221.425 140.72 221.425H138.902C138.508 221.425 135.539 220.62 135.485 219.419Z" fill="#009688"/>
<path d="M138.569 210.882C139.054 209.914 139.479 209.063 139.711 209.063C140.498 210.026 144.6 217.501 144.07 219.665C143.851 220.724 140.72 221.443 140.72 221.443C140.269 221.562 139.904 221.524 138.83 221.443C137.756 221.362 136.808 220.892 137.522 220.641C138.453 220.169 138.83 219.554 138.83 219.554C140.233 217.941 138.958 212.452 138.569 210.882Z" fill="#009688"/>
<path d="M138.569 210.882C139.054 209.914 139.479 209.063 139.711 209.063C140.498 210.026 144.6 217.501 144.07 219.665C143.851 220.724 140.72 221.443 140.72 221.443C140.269 221.562 139.904 221.524 138.83 221.443C137.756 221.362 136.808 220.892 137.522 220.641C138.453 220.169 138.83 219.554 138.83 219.554C140.233 217.941 138.958 212.452 138.569 210.882Z" fill="#333333" fill-opacity="0.15"/>
<path d="M139.414 210.395C138.975 209.857 139.502 208.992 139.714 209.071C140.105 209.218 144.701 217.644 144.123 219.602C144.008 220.565 140.069 222.038 140.512 221.29C140.955 220.542 142.564 219.063 142.031 216.478C141.498 213.894 139.833 210.908 139.414 210.395Z" fill="#009688"/>
<path d="M139.414 210.395C138.975 209.857 139.502 208.992 139.714 209.071C140.105 209.218 144.701 217.644 144.123 219.602C144.008 220.565 140.069 222.038 140.512 221.29C140.955 220.542 142.564 219.063 142.031 216.478C141.498 213.894 139.833 210.908 139.414 210.395Z" fill="#333333" fill-opacity="0.35"/>
<path d="M124.813 181.474C125.112 181.136 128.178 181.136 128.178 181.136C128.178 181.136 130.817 181.11 131.375 181.075C131.932 181.041 132.53 181.769 131.895 181.833C131.259 181.897 125.35 182.891 124.91 182.445C124.471 181.999 124.514 181.813 124.813 181.474Z" fill="#333333"/>
<path d="M127.979 181.766C128.25 181.883 132.844 181.849 132.554 181.766C132.264 181.682 131.596 180.924 131.596 180.198C131.596 179.472 131.797 176.15 131.596 176.15H129.539C129.32 176.15 129.539 178.731 129.539 179.582C129.539 180.433 127.707 181.649 127.979 181.766Z" fill="#333333"/>
<path d="M129.461 176.154C129.461 175.922 130.221 176.154 130.221 176.154V181.808H128.082C127.576 181.808 129.461 180.474 129.461 179.546V176.154Z" fill="#333333"/>
<path d="M129.461 176.154C129.461 175.922 130.221 176.154 130.221 176.154V181.808H128.082C127.576 181.808 129.461 180.474 129.461 179.546V176.154Z" fill="#F5F5F5" fill-opacity="0.05"/>
<path d="M134.652 174.195C134.706 172.994 131.023 163.649 130.435 163.833C129.847 164.017 125.763 172.927 126 174.195C126.237 175.464 129.073 176.201 129.417 176.201H131.235C131.629 176.201 134.598 175.396 134.652 174.195Z" fill="#009688"/>
<path d="M131.568 165.657C131.082 164.689 130.658 163.838 130.426 163.838C129.639 164.802 125.537 172.276 126.067 174.44C126.286 175.499 129.416 176.218 129.416 176.218C129.868 176.337 130.232 176.299 131.307 176.218C132.381 176.138 133.329 175.667 132.615 175.416C131.684 174.944 131.307 174.329 131.307 174.329C129.903 172.716 131.178 167.227 131.568 165.657Z" fill="#009688"/>
<path d="M131.568 165.657C131.082 164.689 130.658 163.838 130.426 163.838C129.639 164.802 125.537 172.276 126.067 174.44C126.286 175.499 129.416 176.218 129.416 176.218C129.868 176.337 130.232 176.299 131.307 176.218C132.381 176.138 133.329 175.667 132.615 175.416C131.684 174.944 131.307 174.329 131.307 174.329C129.903 172.716 131.178 167.227 131.568 165.657Z" fill="#333333" fill-opacity="0.15"/>
<path d="M130.723 165.171C131.162 164.632 130.635 163.768 130.423 163.847C130.032 163.993 125.436 172.42 126.014 174.378C126.128 175.341 130.068 176.814 129.625 176.066C129.182 175.318 127.572 173.838 128.106 171.254C128.639 168.67 130.304 165.683 130.723 165.171Z" fill="#009688"/>
<path d="M130.723 165.171C131.162 164.632 130.635 163.768 130.423 163.847C130.032 163.993 125.436 172.42 126.014 174.378C126.128 175.341 130.068 176.814 129.625 176.066C129.182 175.318 127.572 173.838 128.106 171.254C128.639 168.67 130.304 165.683 130.723 165.171Z" fill="#333333" fill-opacity="0.35"/>
<path d="M155.225 167.648C155.187 166.002 150.122 161.256 149.685 161.345C149.249 161.435 136.808 170.087 136.691 170.256C136.573 170.424 143.054 177.427 145.78 181.376L159.287 172.518C159.287 172.518 155.833 169.1 155.225 167.648Z" fill="#FFFF00"/>
<path d="M143.923 176.935C144.383 177.254 151.219 168.733 151.034 168.31C150.85 167.886 149.738 168.31 149.673 167.553C149.195 166.437 149.896 163.025 148.75 162.709C148.286 162.581 147.554 162.862 147.554 162.862C147.554 162.862 136.889 169.761 136.811 170.277C136.732 170.793 143.463 176.616 143.923 176.935Z" fill="#FFFF00"/>
<path d="M143.923 176.935C144.383 177.254 151.219 168.733 151.034 168.31C150.85 167.886 149.738 168.31 149.673 167.553C149.195 166.437 149.896 163.025 148.75 162.709C148.286 162.581 147.554 162.862 147.554 162.862C147.554 162.862 136.889 169.761 136.811 170.277C136.732 170.793 143.463 176.616 143.923 176.935Z" fill="#333333" fill-opacity="0.15"/>
<path d="M136.727 170.251C136.727 170.251 144.532 179.435 145.821 181.335C145.925 181.394 145.624 190.914 145.624 190.914C145.624 190.914 143.83 190.753 143.009 191.047C142.188 191.34 138.004 193.85 137.168 193.691C136.331 193.532 129.749 186.186 129.597 185.762C134.547 183.183 135.212 181.849 135.212 181.394C135.212 180.938 135.519 175.163 135.212 174.711C134.906 174.258 133.535 174.074 133.515 173.626C133.496 173.178 136.727 170.251 136.727 170.251Z" fill="#333333"/>
<path d="M145.815 181.352L159.296 172.513L159.344 184.227C155.747 185.771 150.198 187.567 145.607 190.915L145.815 181.352Z" fill="#333333" fill-opacity="0.75"/>
<path d="M145.815 181.352L159.296 172.513L159.344 184.227C155.747 185.771 150.198 187.567 145.607 190.915L145.815 181.352Z" fill="#333333" fill-opacity="0.2"/>
<path d="M148.947 162.83C148.694 162.381 147.961 162.77 147.871 162.504C148.243 162.244 148.964 161.759 149.618 161.352C150.272 160.945 152.869 165.275 152.921 165.75C152.973 166.225 150.786 169.132 150.508 168.349C148.712 168.045 149.876 163.676 148.947 162.83Z" fill="#F5F5F5"/>
<path d="M152.374 179.607C152.564 179.112 155.259 178.423 155.259 178.423C155.619 178.214 156.576 183.584 156.598 184.579C156.619 185.573 153.702 186.666 152.563 186.666C152.802 185.334 152.184 180.103 152.374 179.607Z" fill="#F5F5F5"/>
<path d="M138.383 177.309C138.582 177.436 141.151 179.368 141.151 179.537C141.151 179.706 141.359 182.588 141.151 182.507C140.943 182.426 138.327 181.071 138.383 180.812C138.438 180.553 138.183 177.182 138.383 177.309Z" fill="#F5F5F5"/>
<path d="M138.181 183.25C138.538 183.204 140.236 184.16 140.223 184.363C140.209 184.567 132.817 188.778 133.098 188.338C133.098 188.338 130.872 186.703 131.508 186.112C134.689 185.521 137.824 183.295 138.181 183.25Z" fill="#F5F5F5"/>
<path d="M148.887 162.723C148.423 162.379 147.776 162.344 147.451 162.852C145.959 166.037 148.118 170.478 149.1 170.182C149.53 170.345 150.98 168.449 151.153 168.235C151.327 168.021 150.332 168.383 149.955 167.963C149.151 167.068 149.891 163.145 148.887 162.723Z" fill="#333333"/>
<path d="M150.312 180.341L152.337 179.662C152.337 179.662 152.854 184.957 152.708 185.828C152.561 186.698 154.9 186.173 154.9 186.923C153.754 187.423 150.656 187.411 150.463 186.923C150.334 186.595 150.312 180.341 150.312 180.341Z" fill="#333333"/>
<path d="M85.8129 183.606C85.379 183.114 80.9265 183.114 80.9265 183.114C80.9265 183.114 77.0945 183.077 76.2846 183.027C75.4748 182.977 74.6066 184.034 75.5297 184.127C76.4528 184.22 85.0325 185.663 85.671 185.015C86.3096 184.367 86.2468 184.098 85.8129 183.606Z" fill="#333333"/>
<path d="M81.2032 184.028C80.8095 184.198 74.138 184.149 74.5592 184.028C74.9803 183.907 75.9511 182.805 75.9511 181.751C75.9511 180.697 75.6589 175.874 75.9511 175.874H78.9381C79.2549 175.874 78.9381 179.621 78.9381 180.857C78.9381 182.093 81.5968 183.858 81.2032 184.028Z" fill="#333333"/>
<path d="M79.0718 175.879C79.0718 175.542 77.9688 175.879 77.9688 175.879V184.089H81.0741C81.8096 184.089 79.0718 182.153 79.0718 180.805V175.879Z" fill="#333333"/>
<path d="M79.0718 175.879C79.0718 175.542 77.9688 175.879 77.9688 175.879V184.089H81.0741C81.8096 184.089 79.0718 182.153 79.0718 180.805V175.879Z" fill="#F5F5F5" fill-opacity="0.05"/>
<path d="M71.5214 173.036C71.4428 171.293 76.7898 157.723 77.6442 157.99C78.4987 158.257 84.428 171.194 84.0838 173.036C83.7395 174.878 79.6218 175.949 79.1222 175.949H76.483C75.9112 175.949 71.6 174.78 71.5214 173.036Z" fill="#009688"/>
<path d="M75.9992 160.636C76.7043 159.232 77.3204 157.995 77.6579 157.995C78.8006 159.395 84.7565 170.248 83.9864 173.39C83.6693 174.928 79.1233 175.972 79.1233 175.972C78.4681 176.144 77.9385 176.089 76.3785 175.972C74.8184 175.855 73.4417 175.172 74.4784 174.807C75.8307 174.122 76.3785 173.229 76.3785 173.229C78.416 170.886 76.5647 162.916 75.9992 160.636Z" fill="#009688"/>
<path d="M75.9992 160.636C76.7043 159.232 77.3204 157.995 77.6579 157.995C78.8006 159.395 84.7565 170.248 83.9864 173.39C83.6693 174.928 79.1233 175.972 79.1233 175.972C78.4681 176.144 77.9385 176.089 76.3785 175.972C74.8184 175.855 73.4417 175.172 74.4784 174.807C75.8307 174.122 76.3785 173.229 76.3785 173.229C78.416 170.886 76.5647 162.916 75.9992 160.636Z" fill="#333333" fill-opacity="0.15"/>
<path d="M77.2241 159.931C76.5861 159.15 77.3521 157.894 77.66 158.01C78.2272 158.222 84.9008 170.458 84.0618 173.301C83.8952 174.7 78.1747 176.838 78.818 175.752C79.4612 174.666 81.7985 172.517 81.0244 168.765C80.2503 165.012 77.8323 160.676 77.2241 159.931Z" fill="#009688"/>
<path d="M77.2241 159.931C76.5861 159.15 77.3521 157.894 77.66 158.01C78.2272 158.222 84.9008 170.458 84.0618 173.301C83.8952 174.7 78.1747 176.838 78.818 175.752C79.4612 174.666 81.7985 172.517 81.0244 168.765C80.2503 165.012 77.8323 160.676 77.2241 159.931Z" fill="#333333" fill-opacity="0.35"/>
<path d="M85.3434 175.66C85.4059 172.992 93.6182 165.297 94.3257 165.442C95.0332 165.587 115.203 179.616 115.394 179.889C115.585 180.161 105.077 191.515 100.657 197.918L78.7578 183.556C78.7578 183.556 84.358 178.014 85.3434 175.66Z" fill="#008000"/>
<path d="M103.681 190.717C102.935 191.234 91.851 177.42 92.1505 176.733C92.45 176.046 94.2529 176.733 94.3584 175.506C95.1335 173.697 93.9962 168.164 95.8541 167.652C96.6058 167.445 97.7931 167.901 97.7931 167.901C97.7931 167.901 115.085 179.085 115.212 179.922C115.339 180.76 104.427 190.2 103.681 190.717Z" fill="#008000"/>
<path d="M103.681 190.717C102.935 191.234 91.851 177.42 92.1505 176.733C92.45 176.046 94.2529 176.733 94.3584 175.506C95.1335 173.697 93.9962 168.164 95.8541 167.652C96.6058 167.445 97.7931 167.901 97.7931 167.901C97.7931 167.901 115.085 179.085 115.212 179.922C115.339 180.76 104.427 190.2 103.681 190.717Z" fill="#333333" fill-opacity="0.15"/>
<path d="M115.344 179.879C115.344 179.879 102.69 194.768 100.6 197.849C100.43 197.945 100.919 213.379 100.919 213.379C100.919 213.379 103.828 213.119 105.159 213.595C106.49 214.071 113.273 218.141 114.63 217.883C115.986 217.624 126.657 205.714 126.903 205.027C118.878 200.845 117.8 198.684 117.8 197.945C117.8 197.206 117.303 187.843 117.8 187.11C118.297 186.376 120.519 186.077 120.551 185.35C120.583 184.624 115.344 179.879 115.344 179.879Z" fill="#333333"/>
<path d="M100.612 197.878L78.7558 183.548L78.6777 202.54C84.5099 205.043 93.5055 207.954 100.95 213.383L100.612 197.878Z" fill="#333333" fill-opacity="0.75"/>
<path d="M100.612 197.878L78.7558 183.548L78.6777 202.54C84.5099 205.043 93.5055 207.954 100.95 213.383L100.612 197.878Z" fill="#333333" fill-opacity="0.2"/>
<path d="M95.5365 167.848C95.9475 167.12 97.1353 167.751 97.2808 167.319C96.6784 166.897 95.5099 166.112 94.4496 165.452C93.3894 164.791 89.178 171.813 89.094 172.583C89.0099 173.353 92.5553 178.066 93.0066 176.796C95.9183 176.304 94.0316 169.219 95.5365 167.848Z" fill="#F5F5F5"/>
<path d="M89.9806 195.05C89.6732 194.247 85.3034 193.13 85.3034 193.13C84.7192 192.79 83.1676 201.498 83.133 203.11C83.0984 204.722 87.8274 206.495 89.6748 206.495C89.2863 204.334 90.288 195.853 89.9806 195.05Z" fill="#F5F5F5"/>
<path d="M112.665 191.323C112.343 191.529 108.177 194.662 108.177 194.936C108.177 195.21 107.84 199.883 108.177 199.751C108.514 199.619 112.755 197.422 112.665 197.003C112.576 196.583 112.988 191.118 112.665 191.323Z" fill="#F5F5F5"/>
<path d="M112.993 200.955C112.414 200.881 109.66 202.43 109.682 202.761C109.704 203.091 121.689 209.919 121.233 209.206C121.233 209.206 124.842 206.554 123.811 205.596C118.654 204.638 113.572 201.029 112.993 200.955Z" fill="#F5F5F5"/>
<path d="M95.6281 167.671C96.3799 167.115 97.4284 167.058 97.9561 167.881C100.375 173.046 96.8747 180.245 95.2818 179.765C94.5858 180.029 92.2345 176.956 91.9531 176.609C91.6716 176.262 93.2855 176.849 93.8967 176.168C95.1991 174.717 94.0006 168.357 95.6281 167.671Z" fill="#333333"/>
<path d="M93.317 196.236L90.0337 195.135C90.0337 195.135 89.1954 203.721 89.4331 205.132C89.6709 206.544 85.878 205.692 85.8779 206.908C87.7373 207.719 92.7596 207.7 93.072 206.908C93.2817 206.377 93.317 196.236 93.317 196.236Z" fill="#333333"/>
<path d="M109.736 219.93C109.473 219.632 106.781 219.632 106.781 219.632C106.781 219.632 104.464 219.61 103.974 219.579C103.485 219.549 102.96 220.189 103.518 220.245C104.076 220.301 109.264 221.174 109.65 220.782C110.036 220.39 109.998 220.227 109.736 219.93Z" fill="#333333"/>
<path d="M106.542 220.139C106.304 220.18 102.27 220.168 102.524 220.139C102.779 220.109 103.366 219.839 103.366 219.58C103.366 219.321 103.189 218.137 103.366 218.137H105.172C105.364 218.137 105.172 219.057 105.172 219.36C105.172 219.664 106.78 220.097 106.542 220.139Z" fill="#333333"/>
<path d="M105.242 218.14C105.242 218.057 104.575 218.14 104.575 218.14V220.155H106.453C106.898 220.155 105.242 219.68 105.242 219.349V218.14Z" fill="#333333"/>
<path d="M105.242 218.14C105.242 218.057 104.575 218.14 104.575 218.14V220.155H106.453C106.898 220.155 105.242 219.68 105.242 219.349V218.14Z" fill="#F5F5F5" fill-opacity="0.05"/>
<path d="M98.7771 216.791C98.7091 215.918 103.334 209.125 104.073 209.259C104.812 209.393 109.94 215.869 109.642 216.791C109.345 217.713 105.783 218.249 105.351 218.249H103.068C102.574 218.249 98.8451 217.664 98.7771 216.791Z" fill="#009688"/>
<path d="M102.647 210.585C103.257 209.882 103.79 209.262 104.082 209.262C105.07 209.963 110.222 215.397 109.556 216.969C109.281 217.739 105.349 218.262 105.349 218.262C104.783 218.348 104.325 218.321 102.975 218.262C101.626 218.203 100.435 217.862 101.332 217.679C102.502 217.336 102.975 216.889 102.975 216.889C104.738 215.716 103.136 211.726 102.647 210.585Z" fill="#009688"/>
<path d="M102.647 210.585C103.257 209.882 103.79 209.262 104.082 209.262C105.07 209.963 110.222 215.397 109.556 216.969C109.281 217.739 105.349 218.262 105.349 218.262C104.783 218.348 104.325 218.321 102.975 218.262C101.626 218.203 100.435 217.862 101.332 217.679C102.502 217.336 102.975 216.889 102.975 216.889C104.738 215.716 103.136 211.726 102.647 210.585Z" fill="#333333" fill-opacity="0.15"/>
<path d="M103.706 210.23C103.155 209.839 103.817 209.211 104.083 209.268C104.574 209.375 110.346 215.5 109.62 216.923C109.476 217.624 104.529 218.694 105.085 218.15C105.641 217.607 107.663 216.531 106.993 214.653C106.324 212.774 104.232 210.603 103.706 210.23Z" fill="#009688"/>
<path d="M103.706 210.23C103.155 209.839 103.817 209.211 104.083 209.268C104.574 209.375 110.346 215.5 109.62 216.923C109.476 217.624 104.529 218.694 105.085 218.15C105.641 217.607 107.663 216.531 106.993 214.653C106.324 212.774 104.232 210.603 103.706 210.23Z" fill="#333333" fill-opacity="0.35"/>
<path d="M129.332 200.394C129.069 200.096 126.377 200.096 126.377 200.096C126.377 200.096 124.06 200.074 123.57 200.043C123.08 200.013 122.556 200.653 123.114 200.709C123.672 200.765 128.86 201.638 129.246 201.246C129.632 200.854 129.594 200.691 129.332 200.394Z" fill="#333333"/>
<path d="M126.137 200.603C125.899 200.645 121.865 200.633 122.12 200.603C122.375 200.573 122.962 200.303 122.962 200.044C122.962 199.785 122.785 198.601 122.962 198.601H124.768C124.959 198.601 124.768 199.521 124.768 199.824C124.768 200.128 126.375 200.561 126.137 200.603Z" fill="#333333"/>
<path d="M124.837 198.604C124.837 198.521 124.17 198.604 124.17 198.604V200.619H126.048C126.492 200.619 124.837 200.144 124.837 199.813V198.604Z" fill="#333333"/>
<path d="M124.837 198.604C124.837 198.521 124.17 198.604 124.17 198.604V200.619H126.048C126.492 200.619 124.837 200.144 124.837 199.813V198.604Z" fill="#F5F5F5" fill-opacity="0.05"/>
<path d="M118.372 197.254C118.304 196.382 122.928 189.589 123.668 189.722C124.407 189.856 129.535 196.332 129.237 197.254C128.939 198.177 125.378 198.712 124.946 198.712H122.663C122.169 198.712 118.44 198.127 118.372 197.254Z" fill="#009688"/>
<path d="M122.242 191.048C122.852 190.345 123.385 189.726 123.677 189.726C124.665 190.427 129.816 195.86 129.15 197.433C128.876 198.203 124.944 198.726 124.944 198.726C124.377 198.812 123.919 198.784 122.57 198.726C121.221 198.667 120.03 198.325 120.927 198.142C122.096 197.799 122.57 197.352 122.57 197.352C124.332 196.18 122.731 192.19 122.242 191.048Z" fill="#009688"/>
<path d="M122.242 191.048C122.852 190.345 123.385 189.726 123.677 189.726C124.665 190.427 129.816 195.86 129.15 197.433C128.876 198.203 124.944 198.726 124.944 198.726C124.377 198.812 123.919 198.784 122.57 198.726C121.221 198.667 120.03 198.325 120.927 198.142C122.096 197.799 122.57 197.352 122.57 197.352C124.332 196.18 122.731 192.19 122.242 191.048Z" fill="#333333" fill-opacity="0.15"/>
<path d="M123.301 190.694C122.749 190.303 123.412 189.674 123.678 189.732C124.169 189.838 129.941 195.964 129.215 197.387C129.071 198.087 124.123 199.158 124.68 198.614C125.236 198.07 127.258 196.995 126.588 195.116C125.919 193.237 123.827 191.067 123.301 190.694Z" fill="#009688"/>
<path d="M123.301 190.694C122.749 190.303 123.412 189.674 123.678 189.732C124.169 189.838 129.941 195.964 129.215 197.387C129.071 198.087 124.123 199.158 124.68 198.614C125.236 198.07 127.258 196.995 126.588 195.116C125.919 193.237 123.827 191.067 123.301 190.694Z" fill="#333333" fill-opacity="0.35"/>
<path d="M208.023 185.048C207.719 184.704 204.599 184.704 204.599 184.704C204.599 184.704 201.915 184.677 201.347 184.642C200.78 184.607 200.172 185.348 200.818 185.413C201.465 185.479 207.476 186.49 207.924 186.036C208.371 185.582 208.327 185.393 208.023 185.048Z" fill="#333333"/>
<path d="M204.788 185.344C204.513 185.463 199.838 185.429 200.134 185.344C200.429 185.259 201.109 184.488 201.109 183.749C201.109 183.011 200.904 179.631 201.109 179.631H203.201C203.423 179.631 203.201 182.257 203.201 183.123C203.201 183.989 205.064 185.225 204.788 185.344Z" fill="#333333"/>
<path d="M203.296 179.634C203.296 179.398 202.523 179.634 202.523 179.634V185.387H204.699C205.214 185.387 203.296 184.03 203.296 183.086V179.634Z" fill="#333333"/>
<path d="M203.296 179.634C203.296 179.398 202.523 179.634 202.523 179.634V185.387H204.699C205.214 185.387 203.296 184.03 203.296 183.086V179.634Z" fill="#F5F5F5" fill-opacity="0.05"/>
<path d="M195.803 176.458C195.724 174.558 201.082 159.769 201.939 160.06C202.795 160.351 208.737 174.45 208.392 176.458C208.047 178.465 203.921 179.632 203.42 179.632H200.775C200.202 179.632 195.881 178.358 195.803 176.458Z" fill="#009688"/>
<path d="M200.285 162.945C200.991 161.414 201.609 160.066 201.947 160.066C203.092 161.592 209.061 173.421 208.289 176.844C207.971 178.521 203.415 179.659 203.415 179.659C202.759 179.847 202.228 179.787 200.665 179.659C199.101 179.531 197.721 178.787 198.76 178.389C200.116 177.643 200.665 176.669 200.665 176.669C202.706 174.116 200.851 165.43 200.285 162.945Z" fill="#009688"/>
<path d="M200.285 162.945C200.991 161.414 201.609 160.066 201.947 160.066C203.092 161.592 209.061 173.421 208.289 176.844C207.971 178.521 203.415 179.659 203.415 179.659C202.759 179.847 202.228 179.787 200.665 179.659C199.101 179.531 197.721 178.787 198.76 178.389C200.116 177.643 200.665 176.669 200.665 176.669C202.706 174.116 200.851 165.43 200.285 162.945Z" fill="#333333" fill-opacity="0.15"/>
<path d="M201.518 162.176C200.878 161.324 201.646 159.956 201.954 160.082C202.523 160.313 209.211 173.649 208.37 176.747C208.203 178.271 202.47 180.602 203.115 179.418C203.76 178.235 206.102 175.893 205.326 171.803C204.55 167.713 202.127 162.988 201.518 162.176Z" fill="#009688"/>
<path d="M201.518 162.176C200.878 161.324 201.646 159.956 201.954 160.082C202.523 160.313 209.211 173.649 208.37 176.747C208.203 178.271 202.47 180.602 203.115 179.418C203.76 178.235 206.102 175.893 205.326 171.803C204.55 167.713 202.127 162.988 201.518 162.176Z" fill="#333333" fill-opacity="0.35"/>
<path d="M208.848 180.215C208.799 178.102 202.295 172.007 201.734 172.122C201.174 172.237 185.199 183.348 185.048 183.564C184.897 183.78 193.219 192.773 196.719 197.844L214.064 186.469C214.064 186.469 209.629 182.079 208.848 180.215Z" fill="#FF0000"/>
<path d="M194.332 192.143C194.922 192.553 203.701 181.611 203.464 181.067C203.227 180.523 201.799 181.067 201.715 180.096C201.101 178.663 202.002 174.28 200.531 173.875C199.935 173.711 198.995 174.072 198.995 174.072C198.995 174.072 185.299 182.93 185.199 183.593C185.098 184.256 193.741 191.734 194.332 192.143Z" fill="#FF0000"/>
<path d="M194.332 192.143C194.922 192.553 203.701 181.611 203.464 181.067C203.227 180.523 201.799 181.067 201.715 180.096C201.101 178.663 202.002 174.28 200.531 173.875C199.935 173.711 198.995 174.072 198.995 174.072C198.995 174.072 185.299 182.93 185.199 183.593C185.098 184.256 193.741 191.734 194.332 192.143Z" fill="#333333" fill-opacity="0.15"/>
<path d="M185.086 183.559C185.086 183.559 195.109 195.351 196.764 197.792C196.898 197.867 196.511 210.092 196.511 210.092C196.511 210.092 194.207 209.886 193.153 210.263C192.099 210.64 186.726 213.863 185.652 213.659C184.578 213.454 176.126 204.021 175.931 203.477C182.287 200.164 183.141 198.452 183.141 197.867C183.141 197.282 183.535 189.867 183.141 189.286C182.747 188.705 180.987 188.467 180.962 187.892C180.937 187.317 185.086 183.559 185.086 183.559Z" fill="#333333"/>
<path d="M196.76 197.815L214.071 186.466L214.133 201.508C209.514 203.491 202.389 205.796 196.493 210.096L196.76 197.815Z" fill="#333333" fill-opacity="0.75"/>
<path d="M196.76 197.815L214.071 186.466L214.133 201.508C209.514 203.491 202.389 205.796 196.493 210.096L196.76 197.815Z" fill="#333333" fill-opacity="0.2"/>
<path d="M200.788 174.03C200.463 173.453 199.522 173.953 199.407 173.611C199.884 173.277 200.809 172.654 201.649 172.132C202.489 171.609 205.824 177.17 205.891 177.78C205.957 178.389 203.149 182.122 202.792 181.117C200.486 180.727 201.98 175.116 200.788 174.03Z" fill="#F5F5F5"/>
<path d="M205.189 195.574C205.432 194.938 208.893 194.053 208.893 194.053C209.356 193.785 210.585 200.681 210.612 201.958C210.64 203.235 206.894 204.639 205.431 204.639C205.739 202.928 204.945 196.21 205.189 195.574Z" fill="#F5F5F5"/>
<path d="M187.222 192.623C187.477 192.785 190.776 195.267 190.776 195.484C190.776 195.701 191.043 199.402 190.776 199.298C190.509 199.193 187.151 197.453 187.222 197.121C187.293 196.789 186.966 192.46 187.222 192.623Z" fill="#F5F5F5"/>
<path d="M186.962 200.251C187.421 200.193 189.602 201.42 189.584 201.682C189.567 201.943 180.075 207.351 180.436 206.786C180.436 206.786 177.577 204.685 178.394 203.927C182.478 203.168 186.504 200.31 186.962 200.251Z" fill="#F5F5F5"/>
<path d="M200.714 173.891C200.119 173.45 199.288 173.405 198.87 174.057C196.955 178.148 199.727 183.85 200.988 183.47C201.54 183.679 203.402 181.245 203.625 180.97C203.848 180.695 202.569 181.16 202.085 180.62C201.054 179.471 202.003 174.434 200.714 173.891Z" fill="#333333"/>
<path d="M202.545 196.515L205.145 195.643C205.145 195.643 205.809 202.443 205.621 203.561C205.432 204.679 208.436 204.004 208.437 204.967C206.964 205.61 202.986 205.595 202.739 204.967C202.573 204.547 202.545 196.515 202.545 196.515Z" fill="#333333"/>
<path d="M184.062 214.37C184.282 214.121 186.534 214.121 186.534 214.121C186.534 214.121 188.472 214.102 188.882 214.077C189.291 214.051 189.73 214.586 189.263 214.633C188.797 214.68 184.457 215.41 184.134 215.083C183.811 214.755 183.843 214.619 184.062 214.37Z" fill="#333333"/>
<path d="M186.737 214.544C186.936 214.579 190.311 214.569 190.098 214.544C189.885 214.519 189.394 214.293 189.394 214.077C189.394 213.86 189.541 212.87 189.394 212.87H187.883C187.723 212.87 187.883 213.639 187.883 213.893C187.883 214.147 186.538 214.509 186.737 214.544Z" fill="#333333"/>
<path d="M187.817 212.872C187.817 212.802 188.376 212.872 188.376 212.872V214.56H186.803C186.431 214.56 187.817 214.162 187.817 213.885V212.872Z" fill="#333333"/>
<path d="M187.817 212.872C187.817 212.802 188.376 212.872 188.376 212.872V214.56H186.803C186.431 214.56 187.817 214.162 187.817 213.885V212.872Z" fill="#F5F5F5" fill-opacity="0.05"/>
<path d="M193.229 211.744C193.286 211.014 189.417 205.332 188.799 205.444C188.181 205.556 183.891 210.973 184.14 211.744C184.389 212.516 187.368 212.964 187.73 212.964H189.639C190.053 212.964 193.172 212.475 193.229 211.744Z" fill="#009688"/>
<path d="M189.989 206.553C189.479 205.965 189.033 205.447 188.789 205.447C187.962 206.033 183.653 210.578 184.21 211.893C184.44 212.537 187.729 212.975 187.729 212.975C188.203 213.047 188.586 213.024 189.714 212.975C190.843 212.926 191.839 212.64 191.089 212.487C190.111 212.2 189.714 211.826 189.714 211.826C188.24 210.845 189.58 207.508 189.989 206.553Z" fill="#009688"/>
<path d="M189.989 206.553C189.479 205.965 189.033 205.447 188.789 205.447C187.962 206.033 183.653 210.578 184.21 211.893C184.44 212.537 187.729 212.975 187.729 212.975C188.203 213.047 188.586 213.024 189.714 212.975C190.843 212.926 191.839 212.64 191.089 212.487C190.111 212.2 189.714 211.826 189.714 211.826C188.24 210.845 189.58 207.508 189.989 206.553Z" fill="#333333" fill-opacity="0.15"/>
<path d="M189.098 206.257C189.56 205.93 189.005 205.404 188.783 205.452C188.372 205.541 183.544 210.665 184.151 211.856C184.272 212.441 188.41 213.337 187.945 212.882C187.479 212.427 185.788 211.528 186.349 209.956C186.909 208.385 188.658 206.569 189.098 206.257Z" fill="#009688"/>
<path d="M189.098 206.257C189.56 205.93 189.005 205.404 188.783 205.452C188.372 205.541 183.544 210.665 184.151 211.856C184.272 212.441 188.41 213.337 187.945 212.882C187.479 212.427 185.788 211.528 186.349 209.956C186.909 208.385 188.658 206.569 189.098 206.257Z" fill="#333333" fill-opacity="0.35"/>
<path d="M174.057 199.712C174.276 199.464 176.528 199.464 176.528 199.464C176.528 199.464 178.466 199.445 178.876 199.419C179.285 199.394 179.725 199.929 179.258 199.976C178.791 200.023 174.451 200.753 174.128 200.425C173.805 200.097 173.837 199.961 174.057 199.712Z" fill="#333333"/>
<path d="M176.731 199.888C176.931 199.923 180.305 199.913 180.092 199.888C179.879 199.863 179.388 199.637 179.388 199.421C179.388 199.204 179.536 198.214 179.388 198.214H177.877C177.717 198.214 177.877 198.983 177.877 199.237C177.877 199.491 176.532 199.853 176.731 199.888Z" fill="#333333"/>
<path d="M177.811 198.215C177.811 198.146 178.37 198.215 178.37 198.215V199.903H176.797C176.425 199.903 177.811 199.505 177.811 199.228V198.215Z" fill="#333333"/>
<path d="M177.811 198.215C177.811 198.146 178.37 198.215 178.37 198.215V199.903H176.797C176.425 199.903 177.811 199.505 177.811 199.228V198.215Z" fill="#F5F5F5" fill-opacity="0.05"/>
<path d="M183.223 197.087C183.28 196.357 179.411 190.674 178.793 190.786C178.175 190.898 173.885 196.316 174.134 197.087C174.383 197.858 177.363 198.306 177.724 198.306H179.633C180.047 198.306 183.166 197.817 183.223 197.087Z" fill="#009688"/>
<path d="M179.983 191.896C179.473 191.307 179.027 190.79 178.783 190.79C177.956 191.376 173.647 195.921 174.204 197.236C174.434 197.88 177.723 198.318 177.723 198.318C178.197 198.39 178.58 198.367 179.708 198.318C180.837 198.269 181.833 197.983 181.083 197.83C180.105 197.543 179.708 197.169 179.708 197.169C178.234 196.188 179.574 192.85 179.983 191.896Z" fill="#009688"/>
<path d="M179.983 191.896C179.473 191.307 179.027 190.79 178.783 190.79C177.956 191.376 173.647 195.921 174.204 197.236C174.434 197.88 177.723 198.318 177.723 198.318C178.197 198.39 178.58 198.367 179.708 198.318C180.837 198.269 181.833 197.983 181.083 197.83C180.105 197.543 179.708 197.169 179.708 197.169C178.234 196.188 179.574 192.85 179.983 191.896Z" fill="#333333" fill-opacity="0.15"/>
<path d="M179.092 191.6C179.554 191.272 179 190.747 178.777 190.795C178.366 190.884 173.538 196.008 174.145 197.198C174.266 197.784 178.404 198.679 177.939 198.225C177.474 197.77 175.783 196.87 176.343 195.299C176.903 193.727 178.652 191.911 179.092 191.6Z" fill="#009688"/>
<path d="M179.092 191.6C179.554 191.272 179 190.747 178.777 190.795C178.366 190.884 173.538 196.008 174.145 197.198C174.266 197.784 178.404 198.679 177.939 198.225C177.474 197.77 175.783 196.87 176.343 195.299C176.903 193.727 178.652 191.911 179.092 191.6Z" fill="#333333" fill-opacity="0.35"/>
<path d="M141.311 36.5861C199.083 36.5861 245.916 83.4195 245.916 141.191H201.634V77.1473L177.008 96.1933V141.191H167.253V103.707L142.799 122.227V141.191H132.886V122.227L108.246 105.886V141.191H98.6599V105.886L74.0333 122.227V141.191H36.7061C36.7061 83.4195 83.5394 36.5861 141.311 36.5861Z" fill="#0D47A1"/>
<path d="M103.435 94.2439L73.7688 115.795L73.7686 105.652L103.435 83.6884L137.987 105.652L201.522 58.5828V68.7078L137.987 116.015L103.435 94.2439Z" fill="#F5F5F5"/>
<path d="M237.505 141.19C237.505 86.427 194.296 42.0326 140.996 42.0326C87.6958 42.0326 44.4873 86.427 44.4873 141.19" stroke="#0D47A1" stroke-width="11.9839"/>
</svg>
