<svg width="24" height="24" viewBox="0 0 24 24" fill="none" xmlns="http://www.w3.org/2000/svg">
<path d="M6 7.5H12V9H6V7.5ZM6 4.5H15V6H6V4.5ZM6 1.5H15V3H6V1.5Z" fill="#0D47A1"/>
<path d="M3.53325 21L7.7565 13.503L13.332 18.3705C13.5005 18.5205 13.7007 18.6305 13.9177 18.6924C14.1346 18.7543 14.3628 18.7664 14.5851 18.7279C14.8074 18.6894 15.0181 18.6013 15.2016 18.4701C15.3851 18.3388 15.5367 18.1679 15.645 17.97L20.8725 10.1678L19.6268 9.33225L14.3768 17.1683L14.3243 17.2455L8.748 12.378C8.57951 12.2289 8.37968 12.1195 8.16326 12.058C7.94684 11.9964 7.71936 11.9843 7.49762 12.0224C7.27588 12.0606 7.06554 12.1481 6.88214 12.2784C6.69873 12.4088 6.54695 12.5786 6.438 12.7755L3 18.8873V1.5H1.5V21C1.5 21.3978 1.65804 21.7794 1.93934 22.0607C2.22064 22.342 2.60218 22.5 3 22.5H22.5V21H3.53325Z" fill="#0D47A1"/>
</svg>
