<svg width="22" height="23" viewBox="0 0 22 23" fill="none" xmlns="http://www.w3.org/2000/svg">
<path fill-rule="evenodd" clip-rule="evenodd" d="M0.0742188 11.4999C0.0742188 5.65032 4.81596 0.908585 10.6656 0.908585C16.5151 0.908585 21.2569 5.65032 21.2569 11.4999C21.2569 17.3495 16.5151 22.0913 10.6656 22.0913C4.81596 22.0913 0.0742188 17.3495 0.0742188 11.4999ZM10.6656 7.26338C10.6656 6.98248 10.554 6.71309 10.3553 6.51446C10.1567 6.31584 9.88732 6.20425 9.60642 6.20425C9.32552 6.20425 9.05612 6.31584 8.8575 6.51446C8.65887 6.71309 8.54729 6.98248 8.54729 7.26338V12.5591C8.54729 12.84 8.65887 13.1093 8.8575 13.308C9.05612 13.5066 9.32552 13.6182 9.60642 13.6182H14.9021C15.183 13.6182 15.4524 13.5066 15.651 13.308C15.8496 13.1093 15.9612 12.84 15.9612 12.5591C15.9612 12.2782 15.8496 12.0088 15.651 11.8101C15.4524 11.6115 15.183 11.4999 14.9021 11.4999H10.6656V7.26338Z" fill="#0D47A1"/>
</svg>
