<svg width="24" height="24" viewBox="0 0 24 24" fill="none" xmlns="http://www.w3.org/2000/svg">
<path d="M6.7087 11.1615C6.37424 10.4742 6.2005 9.71979 6.20062 8.95542C6.20062 8.5371 6.2611 8.10726 6.38494 7.6431C6.44038 7.4343 6.50998 7.23462 6.58822 7.04094C6.28798 6.87702 5.95798 6.77622 5.60398 6.77622C4.29118 6.77622 3.22846 8.01294 3.22846 9.5403C3.22846 10.6088 3.7507 11.5335 4.51342 11.9936L1.29382 13.4921C1.09318 13.5865 0.960938 13.813 0.960938 14.0662V16.6073C0.960938 16.9479 1.19878 17.2239 1.49134 17.2239H3.3943V14.5575C3.3943 13.7806 3.82678 13.0762 4.49806 12.7621L6.96094 11.6151C6.86874 11.4686 6.78454 11.3171 6.7087 11.1615ZM14.4329 8.3523H22.6149H22.6164C22.8499 8.3523 23.039 8.16294 23.039 7.92966V6.38622C23.039 6.1527 22.8497 5.96358 22.6164 5.96358L22.6149 5.96382V5.96262H13.4719C13.8746 6.49233 14.1628 7.09999 14.3181 7.74702C14.3697 7.96038 14.4072 8.15982 14.4329 8.3523ZM23.039 15.9447C23.039 15.7112 22.8497 15.5221 22.6164 15.5221L22.6149 15.5223V15.5211H17.2817V17.7025C17.2817 17.7729 17.2781 17.8422 17.2709 17.9105H22.6149H22.6164C22.8499 17.9105 23.039 17.7212 23.039 17.4879V15.9447ZM22.6164 10.7429L22.6149 10.7432V10.742H14.1465C14.1084 10.8425 14.0681 10.9426 14.0232 11.0417C13.9373 11.2317 13.8392 11.4158 13.7294 11.593L16.1985 12.7709C16.3838 12.8625 16.5524 12.9844 16.6973 13.1317H22.6149H22.6164C22.8499 13.1317 23.039 12.9423 23.039 12.709V11.1656C23.039 10.9321 22.8497 10.7429 22.6164 10.7429Z" fill="#0D47A1"/>
<path d="M15.6771 13.8485L12.9049 12.5261L11.7325 11.9669C12.2447 11.6443 12.6603 11.1466 12.9325 10.5468C13.1594 10.0469 13.2768 9.50434 13.2769 8.95538C13.2769 8.63186 13.2258 8.3249 13.154 8.02826C12.8053 6.59234 11.6838 5.53418 10.3374 5.53418C9.01642 5.53418 7.91194 6.55442 7.54186 7.94978C7.45642 8.2697 7.39738 8.60258 7.39738 8.95514C7.39738 9.56762 7.54042 10.1383 7.78354 10.6351C8.06458 11.2111 8.48098 11.6861 8.98786 11.9914L7.86514 12.5141L5.0029 13.8471C4.75402 13.9635 4.59082 14.244 4.59082 14.5572V17.7024C4.59082 18.1239 4.88458 18.4659 5.24722 18.4659H15.4273C15.7899 18.4659 16.0837 18.1241 16.0837 17.7024V14.5575C16.0842 14.2452 15.9234 13.9675 15.6771 13.8485Z" fill="#0D47A1"/>
</svg>
