<svg width="14" height="14" viewBox="0 0 14 14" fill="none" xmlns="http://www.w3.org/2000/svg">
<path d="M9.1875 7.58334C9.1875 7.46731 9.14141 7.35603 9.05936 7.27398C8.97731 7.19194 8.86603 7.14584 8.75 7.14584H5.25C5.13397 7.14584 5.02269 7.19194 4.94064 7.27398C4.85859 7.35603 4.8125 7.46731 4.8125 7.58334C4.8125 7.69938 4.85859 7.81066 4.94064 7.8927C5.02269 7.97475 5.13397 8.02084 5.25 8.02084H8.75C8.86603 8.02084 8.97731 7.97475 9.05936 7.8927C9.14141 7.81066 9.1875 7.69938 9.1875 7.58334ZM9.1875 9.91668C9.1875 9.80064 9.14141 9.68936 9.05936 9.60732C8.97731 9.52527 8.86603 9.47918 8.75 9.47918H5.25C5.13397 9.47918 5.02269 9.52527 4.94064 9.60732C4.85859 9.68936 4.8125 9.80064 4.8125 9.91668C4.8125 10.0327 4.85859 10.144 4.94064 10.226C5.02269 10.3081 5.13397 10.3542 5.25 10.3542H8.75C8.86603 10.3542 8.97731 10.3081 9.05936 10.226C9.14141 10.144 9.1875 10.0327 9.1875 9.91668Z" fill="#4A4A4A" fill-opacity="0.7"/>
<path fill-rule="evenodd" clip-rule="evenodd" d="M4.08366 1.3125C3.65821 1.3125 3.25018 1.48151 2.94934 1.78235C2.6485 2.08319 2.47949 2.49122 2.47949 2.91667V11.0833C2.47949 11.5088 2.6485 11.9168 2.94934 12.2177C3.25018 12.5185 3.65821 12.6875 4.08366 12.6875H9.91699C10.3424 12.6875 10.7505 12.5185 11.0513 12.2177C11.3521 11.9168 11.5212 11.5088 11.5212 11.0833V4.648C11.5212 4.42575 11.4488 4.20992 11.3147 4.03258L9.56583 1.71792C9.47067 1.59198 9.34761 1.48983 9.20631 1.41949C9.06502 1.34914 8.90933 1.31252 8.75149 1.3125H4.08366ZM3.35449 2.91667C3.35449 2.51417 3.68116 2.1875 4.08366 2.1875H8.31283V4.75242C8.31283 4.99392 8.50883 5.18992 8.75033 5.18992H10.6462V11.0833C10.6462 11.4858 10.3195 11.8125 9.91699 11.8125H4.08366C3.68116 11.8125 3.35449 11.4858 3.35449 11.0833V2.91667Z" fill="#4A4A4A" fill-opacity="0.7"/>
</svg>
