<svg width="350" height="280" viewBox="0 0 350 280" fill="none" xmlns="http://www.w3.org/2000/svg">
<path d="M190.4 89.5999C195.812 89.6001 200.2 93.9875 200.2 99.3997C200.2 104.812 195.813 109.199 190.4 109.199H280C285.412 109.199 289.8 113.588 289.8 119C289.8 124.412 285.412 128.8 280 128.8H310.8C316.212 128.8 320.6 133.188 320.6 138.6C320.6 144.012 316.212 148.4 310.8 148.4H284.2C278.788 148.4 274.401 152.787 274.4 158.199C274.4 163.612 278.788 168 284.2 168H292.6C298.012 168 302.4 172.388 302.4 177.8C302.4 183.212 298.012 187.6 292.6 187.6H219.8C219.079 187.6 218.377 187.522 217.7 187.374C217.024 187.522 216.32 187.6 215.6 187.6H88.2002C82.7878 187.6 78.4004 183.212 78.4004 177.8C78.4004 172.388 82.7878 168 88.2002 168H33.5996C28.1874 168 23.7998 163.612 23.7998 158.199C23.8001 152.787 28.1876 148.4 33.5996 148.4H89.5996C95.012 148.4 99.4004 144.012 99.4004 138.6C99.4003 133.188 95.012 128.8 89.5996 128.8H54.5996C49.1875 128.8 44.8 124.412 44.7998 119C44.7998 113.588 49.1874 109.2 54.5996 109.199H110.6C105.187 109.199 100.8 104.812 100.8 99.3997C100.8 93.9875 105.187 89.6001 110.6 89.5999H190.4ZM316.4 168C321.813 168 326.2 172.388 326.2 177.8C326.2 183.212 321.813 187.6 316.4 187.6C310.988 187.6 306.6 183.212 306.6 177.8C306.6 172.388 310.988 168 316.4 168Z" fill="#C1DAFF"/>
<path d="M241.5 63V71.4" stroke="#75A4FE" stroke-width="3.5" stroke-linecap="round" stroke-linejoin="round"/>
<path d="M241.5 82.5999V90.9999" stroke="#75A4FE" stroke-width="3.5" stroke-linecap="round" stroke-linejoin="round"/>
<path d="M227.5 77H235.9" stroke="#75A4FE" stroke-width="3.5" stroke-linecap="round" stroke-linejoin="round"/>
<path d="M247.1 77H255.5" stroke="#75A4FE" stroke-width="3.5" stroke-linecap="round" stroke-linejoin="round"/>
<path d="M125.3 207.2V212.8" stroke="#75A4FE" stroke-width="3.5" stroke-linecap="round" stroke-linejoin="round"/>
<path d="M125.3 224V229.6" stroke="#75A4FE" stroke-width="3.5" stroke-linecap="round" stroke-linejoin="round"/>
<path d="M114.1 218.4H119.7" stroke="#75A4FE" stroke-width="3.5" stroke-linecap="round" stroke-linejoin="round"/>
<path d="M130.9 218.4H136.5" stroke="#75A4FE" stroke-width="3.5" stroke-linecap="round" stroke-linejoin="round"/>
<path fill-rule="evenodd" clip-rule="evenodd" d="M224.996 183.577C226.943 181.192 228.693 178.699 230.246 176.118C233.661 170.442 236.123 164.344 237.628 158.056C239.149 151.698 239.692 145.146 239.252 138.641C238.867 132.966 237.735 127.326 235.851 121.884C233.982 116.484 231.374 111.277 228.025 106.421C226.029 103.527 223.77 100.757 221.247 98.1449C217.543 94.3095 213.479 91.0305 209.162 88.3101C204.524 85.387 199.592 83.1087 194.497 81.4776C188.116 79.4349 181.478 78.4074 174.84 78.3999C169.675 78.3941 164.509 79.0058 159.463 80.2374C153.782 81.6238 148.253 83.7959 143.047 86.7568C138.47 89.3597 134.143 92.5721 130.183 96.3964C125.206 101.202 121.174 106.62 118.091 112.418C115.073 118.094 112.965 124.135 111.771 130.324C110.54 136.7 110.278 143.233 110.99 149.685C111.913 158.047 114.47 166.275 118.67 173.85C121.357 178.697 124.717 183.277 128.752 187.455C135.158 194.087 142.636 199.056 150.646 202.35C160.386 206.355 170.912 207.885 181.25 206.92C189.926 206.11 198.47 203.542 206.305 199.206" fill="#F5F5F5"/>
<path d="M224.996 183.577C226.943 181.192 228.693 178.699 230.246 176.118C233.661 170.442 236.123 164.344 237.628 158.056C239.149 151.698 239.692 145.146 239.252 138.641C238.867 132.966 237.735 127.326 235.851 121.884C233.982 116.484 231.374 111.277 228.025 106.421C226.029 103.527 223.77 100.757 221.247 98.1449C217.543 94.3095 213.479 91.0305 209.162 88.3101C204.524 85.387 199.592 83.1087 194.497 81.4776C188.115 79.4349 181.478 78.4074 174.84 78.3999C169.675 78.3941 164.509 79.0058 159.463 80.2374C153.782 81.6238 148.253 83.7959 143.047 86.7568C138.47 89.3597 134.143 92.5721 130.183 96.3964C125.206 101.202 121.174 106.62 118.091 112.418C115.073 118.094 112.965 124.135 111.771 130.324C110.54 136.7 110.278 143.233 110.99 149.685C111.913 158.047 114.47 166.275 118.67 173.85C121.357 178.697 124.717 183.277 128.752 187.455C135.158 194.087 142.636 199.056 150.646 202.35C160.386 206.355 170.912 207.885 181.25 206.92C189.926 206.11 198.47 203.542 206.305 199.206" stroke="#0D47A1" stroke-width="3.5" stroke-linecap="round" stroke-linejoin="round"/>
<path fill-rule="evenodd" clip-rule="evenodd" d="M210.982 196.529C215.05 193.911 218.667 190.645 221.021 188.008L210.982 196.529Z" fill="#F5F5F5"/>
<path d="M210.982 196.529C215.05 193.911 218.667 190.645 221.021 188.008" stroke="#75A4FE" stroke-width="3.5" stroke-linecap="round"/>
<path d="M233.8 146.464C233.4 146.471 232.998 146.474 232.596 146.474C197.241 146.474 168.292 118.911 165.866 84C137.725 88.4388 116.2 112.914 116.2 142.441C116.2 175.114 142.556 201.6 175.067 201.6C206.233 201.6 231.742 177.26 233.8 146.464Z" fill="#C1DAFF" fill-opacity="0.5"/>
<path fill-rule="evenodd" clip-rule="evenodd" d="M152.632 140.522C150.92 138.941 148.263 139.062 146.699 140.793C145.134 142.524 145.254 145.21 146.967 146.791L166.734 165.045C169.131 167.259 172.85 167.089 175.041 164.665C175.132 164.562 175.132 164.562 175.221 164.456L203.429 130.16C204.912 128.357 204.668 125.68 202.885 124.181C201.101 122.682 198.453 122.928 196.97 124.731L170.45 156.975L152.632 140.522Z" fill="#F5F5F5" stroke="#0D47A1" stroke-width="3.5" stroke-linecap="round"/>
<path fill-rule="evenodd" clip-rule="evenodd" d="M155.154 90.1782C152.423 91.2024 149.756 92.4471 147.18 93.9126C143.176 96.1899 139.391 99.0006 135.926 102.347C134.506 103.718 133.173 105.147 131.929 106.625M128.079 111.773C127.09 113.268 126.179 114.801 125.348 116.365C124.734 117.52 124.163 118.693 123.635 119.88" fill="#F5F5F5"/>
<path d="M155.768 91.8166C156.673 91.4772 157.132 90.4684 156.792 89.5635C156.453 88.6585 155.444 88.2002 154.539 88.5397L155.154 90.1782L155.768 91.8166ZM147.18 93.9126L148.045 95.4337L147.18 93.9126ZM135.926 102.347L134.71 101.088L135.926 102.347ZM130.59 105.498C129.968 106.238 130.063 107.342 130.802 107.964C131.542 108.587 132.646 108.492 133.268 107.752L131.929 106.625L130.59 105.498ZM129.539 112.739C130.072 111.933 129.851 110.847 129.045 110.314C128.239 109.78 127.153 110.001 126.62 110.807L128.079 111.773L129.539 112.739ZM125.348 116.365L126.893 117.186L125.348 116.365ZM122.036 119.169C121.643 120.052 122.041 121.086 122.924 121.479C123.807 121.872 124.841 121.474 125.234 120.591L123.635 119.88L122.036 119.169ZM155.154 90.1782L154.539 88.5397C151.723 89.5961 148.972 90.8798 146.315 92.3915L147.18 93.9126L148.045 95.4337C150.541 94.0143 153.124 92.8088 155.768 91.8166L155.154 90.1782ZM147.18 93.9126L146.315 92.3915C142.185 94.7406 138.282 97.6392 134.71 101.088L135.926 102.347L137.142 103.606C140.5 100.362 144.168 97.6393 148.045 95.4337L147.18 93.9126ZM135.926 102.347L134.71 101.088C133.247 102.501 131.873 103.974 130.59 105.498L131.929 106.625L133.268 107.752C134.474 106.32 135.765 104.935 137.142 103.606L135.926 102.347ZM128.079 111.773L126.62 110.807C125.599 112.349 124.66 113.93 123.803 115.543L125.348 116.365L126.893 117.186C127.699 115.671 128.58 114.187 129.539 112.739L128.079 111.773ZM125.348 116.365L123.803 115.543C123.169 116.735 122.58 117.944 122.036 119.169L123.635 119.88L125.234 120.591C125.745 119.441 126.298 118.305 126.893 117.186L125.348 116.365Z" fill="#75A4FE"/>
</svg>
