<svg width="15" height="14" viewBox="0 0 15 14" fill="none" xmlns="http://www.w3.org/2000/svg">
<path fill-rule="evenodd" clip-rule="evenodd" d="M8.25 6.3625V1C8.25 0.801088 8.17098 0.610322 8.03033 0.46967C7.88967 0.329018 7.69891 0.25 7.5 0.25C7.30108 0.25 7.11032 0.329018 6.96967 0.46967C6.82901 0.610322 6.75 0.801088 6.75 1V6.3625L5.085 4.2805C5.02465 4.20018 4.94879 4.1328 4.86191 4.08236C4.77503 4.03192 4.6789 3.99945 4.57922 3.98687C4.47955 3.9743 4.37837 3.98188 4.28168 4.00916C4.18499 4.03644 4.09477 4.08287 4.01637 4.14569C3.93797 4.20851 3.87299 4.28644 3.82529 4.37485C3.77759 4.46327 3.74814 4.56037 3.73868 4.66038C3.72923 4.7604 3.73996 4.8613 3.77025 4.95708C3.80054 5.05287 3.84976 5.1416 3.915 5.218L6.915 8.968C6.98527 9.05559 7.07432 9.12629 7.17557 9.17487C7.27682 9.22344 7.38769 9.24866 7.5 9.24866C7.6123 9.24866 7.72317 9.22344 7.82442 9.17487C7.92567 9.12629 8.01472 9.05559 8.085 8.968L11.085 5.218C11.1502 5.1416 11.1995 5.05287 11.2297 4.95708C11.26 4.8613 11.2708 4.7604 11.2613 4.66038C11.2519 4.56037 11.2224 4.46327 11.1747 4.37485C11.127 4.28644 11.062 4.20851 10.9836 4.14569C10.9052 4.08287 10.815 4.03644 10.7183 4.00916C10.6216 3.98188 10.5204 3.9743 10.4208 3.98687C10.3211 3.99945 10.225 4.03192 10.1381 4.08236C10.0512 4.1328 9.97534 4.20018 9.915 4.2805L8.25 6.3625Z" fill="#F5F5F5"/>
<path fill-rule="evenodd" clip-rule="evenodd" d="M5.74275 9.9055L4.0185 7.75H2.25C1.85218 7.75 1.47064 7.90804 1.18934 8.18934C0.908035 8.47064 0.75 8.85218 0.75 9.25V12.25C0.75 12.6478 0.908035 13.0294 1.18934 13.3107C1.47064 13.592 1.85218 13.75 2.25 13.75H12.75C13.1478 13.75 13.5294 13.592 13.8107 13.3107C14.092 13.0294 14.25 12.6478 14.25 12.25V9.25C14.25 8.85218 14.092 8.47064 13.8107 8.18934C13.5294 7.90804 13.1478 7.75 12.75 7.75H10.9815L9.2565 9.9055C9.04571 10.169 8.77836 10.3816 8.47424 10.5278C8.17013 10.6739 7.83704 10.7498 7.49963 10.7498C7.16221 10.7498 6.82912 10.6739 6.52501 10.5278C6.22089 10.3816 5.95354 10.169 5.74275 9.9055ZM11.25 10C11.0511 10 10.8603 10.079 10.7197 10.2197C10.579 10.3603 10.5 10.5511 10.5 10.75C10.5 10.9489 10.579 11.1397 10.7197 11.2803C10.8603 11.421 11.0511 11.5 11.25 11.5H11.2575C11.4564 11.5 11.6472 11.421 11.7878 11.2803C11.9285 11.1397 12.0075 10.9489 12.0075 10.75C12.0075 10.5511 11.9285 10.3603 11.7878 10.2197C11.6472 10.079 11.4564 10 11.2575 10H11.25Z" fill="#F5F5F5"/>
</svg>
