<svg width="24" height="25" viewBox="0 0 24 25" fill="none" xmlns="http://www.w3.org/2000/svg">
<path d="M18.796 4.5H5.20398C5.01174 4.49984 4.82352 4.55509 4.66187 4.65914C4.50022 4.76319 4.37199 4.91164 4.29253 5.08669C4.21308 5.26175 4.18577 5.456 4.21387 5.64618C4.24197 5.83636 4.32429 6.01441 4.45098 6.159L9.75298 12.217C9.91245 12.3995 10.0002 12.6337 9.99998 12.876V17.75C9.99998 17.8276 10.0181 17.9042 10.0528 17.9736C10.0875 18.043 10.1379 18.1034 10.2 18.15L13.2 20.4C13.2743 20.4557 13.3626 20.4896 13.4551 20.498C13.5476 20.5063 13.6405 20.4887 13.7236 20.4472C13.8066 20.4057 13.8765 20.3419 13.9253 20.2629C13.9741 20.1839 14 20.0929 14 20V12.876C13.9997 12.6337 14.0875 12.3995 14.247 12.217L19.549 6.158C20.115 5.512 19.655 4.5 18.796 4.5Z" stroke="#333333" stroke-width="2" stroke-linecap="round"/>
</svg>
