<svg width="24" height="25" viewBox="0 0 24 25" fill="none" xmlns="http://www.w3.org/2000/svg">
<path d="M19.3305 7.194L19.7505 5.817C19.7889 5.69139 19.8517 5.57458 19.9352 5.47323C20.0188 5.37188 20.1215 5.28798 20.2374 5.22632C20.3534 5.16466 20.4804 5.12645 20.6112 5.11387C20.7419 5.10129 20.8739 5.11459 20.9995 5.153C21.1251 5.19141 21.2419 5.25419 21.3432 5.33774C21.4446 5.4213 21.5285 5.524 21.5901 5.63998C21.6518 5.75596 21.69 5.88295 21.7026 6.0137C21.7152 6.14444 21.7019 6.27639 21.6635 6.402L20.4935 10.227C20.4159 10.4805 20.2409 10.6928 20.0069 10.8173C19.7729 10.9418 19.499 10.9683 19.2455 10.891L15.4205 9.721C15.2922 9.6849 15.1725 9.62355 15.0683 9.54054C14.9641 9.45753 14.8776 9.35454 14.8137 9.23761C14.7499 9.12069 14.71 8.99218 14.6966 8.85965C14.6831 8.72711 14.6962 8.59322 14.7352 8.46583C14.7741 8.33844 14.8382 8.22013 14.9235 8.11783C15.0089 8.01553 15.1138 7.93132 15.2321 7.87013C15.3504 7.80894 15.4798 7.77201 15.6126 7.76152C15.7454 7.75102 15.879 7.76716 16.0055 7.809L17.6775 8.32C16.9383 7.1989 15.9073 6.30068 14.6955 5.72208C13.4837 5.14349 12.137 4.90644 10.8005 5.03647C9.46399 5.16651 8.18826 5.65869 7.11071 6.46001C6.03317 7.26134 5.19465 8.34144 4.68546 9.584L4.42546 10.217C4.37818 10.342 4.30633 10.4562 4.21417 10.5529C4.12201 10.6496 4.0114 10.7269 3.88887 10.7802C3.76635 10.8334 3.63439 10.8616 3.5008 10.863C3.3672 10.8644 3.23468 10.8391 3.11105 10.7884C2.98743 10.7378 2.8752 10.6628 2.78101 10.5681C2.68682 10.4733 2.61256 10.3607 2.56264 10.2368C2.51271 10.1128 2.48812 9.98017 2.49033 9.84658C2.49253 9.713 2.52148 9.58121 2.57546 9.459L2.83546 8.826C3.48169 7.24928 4.54518 5.87835 5.91174 4.86042C7.2783 3.84249 8.89632 3.216 10.5921 3.04823C12.2878 2.88045 13.9972 3.17773 15.5367 3.90813C17.0763 4.63854 18.3878 5.77448 19.3305 7.194ZM3.80846 17.807L3.48146 19.118C3.45221 19.248 3.39725 19.3709 3.31984 19.4794C3.24242 19.5878 3.1441 19.6797 3.03066 19.7497C2.91722 19.8196 2.79094 19.8662 2.65925 19.8866C2.52755 19.9071 2.3931 19.901 2.26379 19.8687C2.13449 19.8365 2.01293 19.7787 1.90628 19.6988C1.79962 19.6189 1.71001 19.5184 1.64271 19.4034C1.57542 19.2884 1.53179 19.1611 1.51441 19.0289C1.49702 18.8968 1.50622 18.7625 1.54146 18.634L2.50846 14.754C2.54109 14.6219 2.60033 14.4978 2.68257 14.3894C2.7648 14.281 2.8683 14.1905 2.98672 14.1235C3.10514 14.0565 3.236 14.0143 3.37127 13.9996C3.50655 13.9849 3.64341 13.998 3.77346 14.038L7.60146 14.992C7.85886 15.0562 8.08021 15.22 8.21683 15.4474C8.35345 15.6748 8.39415 15.9471 8.32996 16.2045C8.26578 16.4619 8.10198 16.6832 7.87459 16.8199C7.6472 16.9565 7.37486 16.9972 7.11746 16.933L5.33146 16.488C6.09498 17.6568 7.17422 18.5853 8.44401 19.1656C9.71379 19.746 11.1221 19.9544 12.5055 19.7668C13.889 19.5793 15.1909 19.0033 16.2603 18.1058C17.3297 17.2083 18.1228 16.026 18.5475 14.696C18.6281 14.4432 18.8058 14.2329 19.0416 14.1112C19.1583 14.0509 19.2857 14.0142 19.4166 14.0032C19.5475 13.9922 19.6793 14.0071 19.8045 14.047C19.9296 14.0869 20.0457 14.1511 20.146 14.2359C20.2464 14.3207 20.329 14.4244 20.3893 14.5411C20.4496 14.6578 20.4862 14.7853 20.4973 14.9162C20.5083 15.0471 20.4934 15.1789 20.4535 15.304C20.0372 16.61 19.3398 17.8089 18.4103 18.8163C17.4808 19.8237 16.3418 20.6152 15.0735 21.135C13.0973 21.9446 10.9041 22.0561 8.85602 21.451C6.80794 20.8459 5.02743 19.5605 3.80846 17.807Z" fill="#0D47A1"/>
</svg>
