<svg width="20" height="21" viewBox="0 0 20 21" fill="none" xmlns="http://www.w3.org/2000/svg">
<rect x="1" y="1.5" width="18" height="18" rx="9" stroke="#F5F5F5" stroke-width="2"/>
<path d="M10.75 6C10.75 5.80109 10.671 5.61032 10.5303 5.46967C10.3897 5.32902 10.1989 5.25 10 5.25C9.80109 5.25 9.61032 5.32902 9.46967 5.46967C9.32902 5.61032 9.25 5.80109 9.25 6V9.75H5.5C5.30109 9.75 5.11032 9.82902 4.96967 9.96967C4.82902 10.1103 4.75 10.3011 4.75 10.5C4.75 10.6989 4.82902 10.8897 4.96967 11.0303C5.11032 11.171 5.30109 11.25 5.5 11.25H9.25V15C9.25 15.1989 9.32902 15.3897 9.46967 15.5303C9.61032 15.671 9.80109 15.75 10 15.75C10.1989 15.75 10.3897 15.671 10.5303 15.5303C10.671 15.3897 10.75 15.1989 10.75 15V11.25H14.5C14.6989 11.25 14.8897 11.171 15.0303 11.0303C15.171 10.8897 15.25 10.6989 15.25 10.5C15.25 10.3011 15.171 10.1103 15.0303 9.96967C14.8897 9.82902 14.6989 9.75 14.5 9.75H10.75V6Z" fill="#F5F5F5"/>
</svg>
