<svg width="19" height="19" viewBox="0 0 19 19" fill="none" xmlns="http://www.w3.org/2000/svg">
<path d="M7.83301 8.24991C7.83301 8.54538 7.77481 8.83796 7.66174 9.11095C7.54866 9.38393 7.38293 9.63197 7.174 9.8409C6.96507 10.0498 6.71703 10.2156 6.44405 10.3286C6.17106 10.4417 5.87848 10.4999 5.58301 10.4999C5.28753 10.4999 4.99495 10.4417 4.72197 10.3286C4.44899 10.2156 4.20095 10.0498 3.99202 9.8409C3.78309 9.63197 3.61735 9.38393 3.50428 9.11095C3.39121 8.83796 3.33301 8.54538 3.33301 8.24991C3.33301 7.65317 3.57006 7.08087 3.99202 6.65892C4.41397 6.23696 4.98627 5.99991 5.58301 5.99991C6.17974 5.99991 6.75204 6.23696 7.174 6.65892C7.59595 7.08087 7.83301 7.65317 7.83301 8.24991ZM6.58301 8.24991C6.58301 7.98469 6.47765 7.73034 6.29011 7.5428C6.10258 7.35526 5.84822 7.24991 5.58301 7.24991C5.31779 7.24991 5.06344 7.35526 4.8759 7.5428C4.68836 7.73034 4.58301 7.98469 4.58301 8.24991C4.58301 8.51512 4.68836 8.76948 4.8759 8.95701C5.06344 9.14455 5.31779 9.24991 5.58301 9.24991C5.84822 9.24991 6.10258 9.14455 6.29011 8.95701C6.47765 8.76948 6.58301 8.51512 6.58301 8.24991ZM5.58301 15.9999C6.17974 15.9999 6.75204 15.7629 7.174 15.3409C7.59595 14.9189 7.83301 14.3466 7.83301 13.7499C7.83301 13.1532 7.59595 12.5809 7.174 12.1589C6.75204 11.737 6.17974 11.4999 5.58301 11.4999C4.98627 11.4999 4.41397 11.737 3.99202 12.1589C3.57006 12.5809 3.33301 13.1532 3.33301 13.7499C3.33301 14.3466 3.57006 14.9189 3.99202 15.3409C4.41397 15.7629 4.98627 15.9999 5.58301 15.9999ZM5.58301 14.7499C5.31779 14.7499 5.06344 14.6446 4.8759 14.457C4.68836 14.2695 4.58301 14.0151 4.58301 13.7499C4.58301 13.4847 4.68836 13.2303 4.8759 13.0428C5.06344 12.8553 5.31779 12.7499 5.58301 12.7499C5.84822 12.7499 6.10258 12.8553 6.29011 13.0428C6.47765 13.2303 6.58301 13.4847 6.58301 13.7499C6.58301 14.0151 6.47765 14.2695 6.29011 14.457C6.10258 14.6446 5.84822 14.7499 5.58301 14.7499ZM3.95801 3.49991C3.79225 3.49991 3.63328 3.56576 3.51607 3.68297C3.39886 3.80018 3.33301 3.95915 3.33301 4.12491C3.33301 4.29067 3.39886 4.44964 3.51607 4.56685C3.63328 4.68406 3.79225 4.74991 3.95801 4.74991H14.708C14.8738 4.74991 15.0327 4.68406 15.1499 4.56685C15.2672 4.44964 15.333 4.29067 15.333 4.12491C15.333 3.95915 15.2672 3.80018 15.1499 3.68297C15.0327 3.56576 14.8738 3.49991 14.708 3.49991H3.95801ZM8.83301 8.37491C8.83301 8.02991 9.11301 7.74991 9.45801 7.74991H14.708C14.8738 7.74991 15.0327 7.81575 15.1499 7.93297C15.2672 8.05018 15.333 8.20915 15.333 8.37491C15.333 8.54067 15.2672 8.69964 15.1499 8.81685C15.0327 8.93406 14.8738 8.99991 14.708 8.99991H9.45801C9.11301 8.99991 8.83301 8.71991 8.83301 8.37491ZM9.45801 12.9999C9.29225 12.9999 9.13328 13.0658 9.01606 13.183C8.89885 13.3002 8.83301 13.4591 8.83301 13.6249C8.83301 13.7907 8.89885 13.9496 9.01606 14.0668C9.13328 14.1841 9.29225 14.2499 9.45801 14.2499H14.708C14.8738 14.2499 15.0327 14.1841 15.1499 14.0668C15.2672 13.9496 15.333 13.7907 15.333 13.6249C15.333 13.4591 15.2672 13.3002 15.1499 13.183C15.0327 13.0658 14.8738 12.9999 14.708 12.9999H9.45801ZM3.45801 0.499908C2.62921 0.499908 1.83435 0.829149 1.2483 1.4152C0.662248 2.00125 0.333008 2.79611 0.333008 3.62491V15.3749C0.333008 16.2037 0.662248 16.9986 1.2483 17.5846C1.83435 18.1707 2.62921 18.4999 3.45801 18.4999H15.208C16.0368 18.4999 16.8317 18.1707 17.4177 17.5846C18.0038 16.9986 18.333 16.2037 18.333 15.3749V3.62491C18.333 2.79611 18.0038 2.00125 17.4177 1.4152C16.8317 0.829149 16.0368 0.499908 15.208 0.499908H3.45801ZM1.58301 3.62491C1.58301 3.12763 1.78055 2.65071 2.13218 2.29908C2.48381 1.94745 2.96073 1.74991 3.45801 1.74991H15.208C15.7053 1.74991 16.1822 1.94745 16.5338 2.29908C16.8855 2.65071 17.083 3.12763 17.083 3.62491V15.3749C17.083 15.8722 16.8855 16.3491 16.5338 16.7007C16.1822 17.0524 15.7053 17.2499 15.208 17.2499H3.45801C2.96073 17.2499 2.48381 17.0524 2.13218 16.7007C1.78055 16.3491 1.58301 15.8722 1.58301 15.3749V3.62491Z" fill="#0D47A1"/>
</svg>
